<?xml version="1.0" encoding="UTF-8"?>
<svg id="Layer_1" data-name="Layer 1" xmlns="http://www.w3.org/2000/svg" viewBox="0 0 960 960">
  <defs>
    <style>
      .cls-1 {
        fill: #ec008d;
      }

      .cls-1, .cls-2, .cls-3 {
        stroke-width: 0px;
      }

      .cls-2 {
        fill: #fff;
      }

      .cls-3 {
        fill: #00b2d8;
      }
    </style>
  </defs>
  <path class="cls-1" d="M484.63,181.85c2.8.26,5.61.6,8.42.78,24.82,1.6,48.43,8.1,71.03,18.18,6.06,2.7,11.69,6.61,17.08,10.56,7.35,5.38,14.67,10.93,21.31,17.14,11.29,10.55,18.63,23.84,23.15,38.46,3.22,10.42,5.3,21.19,7.78,31.83,2.34,10.06,2.72,20.3,2.54,30.59-.13,7.72.03,15.44-.24,23.16-.36,10.28-2.53,20.3-5.06,30.24-.5,1.94-.52,3.39,1.26,4.76,4.56,3.51,4.49,8.2,3.26,13.26-3.04,12.55-6.93,24.77-13.92,35.73-8.15,12.77-19.8,21.6-33.03,28.53-3.31,1.74-6.56,3.66-10.01,5.08-10.05,4.13-18.44,10.96-27.54,16.63-20.44,12.72-42.54,21.1-66.13,25.79-10.32,2.05-20.68,3.11-31.2,2.9-7.79-.16-15.63.35-23.36-.41-9.04-.88-18.03-2.52-26.94-4.33-17.39-3.54-33.89-9.68-49.49-18.14-18.1-9.82-31.12-24.43-39.79-42.96-5.7-12.19-9.98-24.88-11.74-38.27-.63-4.82-.39-9.75-.6-14.62-.5-11.68,1.38-23.1,3.59-34.5,3.17-16.4,5.49-32.92,5.25-49.68-.09-6.36-.72-12.71-1.25-19.05-.89-10.79,1.09-21.1,5.1-31.06,8.36-20.81,22.3-37.27,40.27-50.32,10.47-7.6,22.62-11.77,35.07-14.94,16.7-4.25,33.52-7.94,50.62-10.24,12.53-1.69,25.09-3.19,37.64-4.78.33-.04.65-.2.98-.31,1.98,0,3.97,0,5.95,0ZM407.88,292.15l.34-.07c.23.62.51,1.23.7,1.87,7.1,24.3,13.53,48.77,18.97,73.51,2.49,11.32,4.88,22.67,5.51,34.25.27,5.02,2.87,7.81,6.71,9.93,4.56,2.52,6.97,2.11,9.48-2.46,2.87-5.22,5.54-10.68,7.32-16.34,8.91-28.31,16.69-56.93,23.07-85.93.67-3.04,1.6-6.02,2.4-9.02.18.04.35.07.53.11,0,.46,0,.93,0,1.39-.03,12.54-.06,25.07-.07,37.61,0,1.91.02,3.83.19,5.73.66,7.46,1.53,14.9,2.03,22.37.38,5.65.29,11.33.44,16.99.12,4.57.32,9.15.39,13.72.02,1.55-.37,3.09-.38,4.64-.07,8.29-.08,16.57-.11,24.86,0,.69,0,1.38,0,2.32-.92,0-1.68-.06-2.43,0-4.28.39-8.57.78-12.85,1.22-1.39.14-2.05.93-2.01,2.43.06,2.41-.17,4.82-.01,7.22.06.87.68,1.95,1.39,2.49,4.2,3.2,9.21,4.1,14.28,4.81,11.91,1.66,23.74-.18,35.6-.78,2.52-1.84,5.95-3.16,7.34-5.63,2.23-3.97.58-11.47-5.21-13.11-2.6-.74-5.42-.74-8.14-.94-1.87-.13-3.76-.03-5.78-.03,0-1.27-.04-2.33,0-3.38.65-15.4-.94-30.69-2.18-45.99-.77-9.52-1.7-19.02-2.43-28.55-.54-7.12-.98-14.25-1.28-21.39-.59-14.07-1.05-28.14-1.58-42.21-.13-3.53-.14-7.08-.49-10.6-.71-7.27-1.29-14.52-.5-21.82.33-3.08,2.22-4.85,5.32-4.93,1.98-.05,3.97.02,5.95-.02,4.62-.08,7.39-2.23,8.04-6.78.34-2.37.76-5.37-.35-7.16-2.48-3.99-6.72-5.82-11.49-5.44-5.92.48-11.82,1.21-17.7,1.99-6.87.91-13.38,2.82-18.97,7.21-1.53,1.2-2.45,2.38-1.94,4.45.35,1.43.34,2.94.5,4.42.42,3.95.94,4.54,4.96,4.73,3.27.15,6.55.03,9.93.03-.85,2.16-1.7,4.7-2.82,7.12-5.42,11.76-9.66,23.93-12.84,36.48-6.05,23.85-12.11,47.7-18.19,71.54-.73,2.87-1.61,5.7-2.42,8.55-.18-.04-.37-.08-.55-.11-.3-1.35-.54-2.72-.9-4.06-3.24-12.12-6.18-24.34-9.82-36.34-5.79-19.08-11.98-38.04-18.14-57.01-3.05-9.41-6.94-18.48-11.83-27.09-.37-.65-1.18-1.61-1.68-1.55-3.79.43-7.66.89-10.57,3.75-1.63,1.6-2.39,3.38-1.4,5.88,1.92,4.87,2.43,9.95,1.48,15.19-.54,2.97-.7,6.02-.85,9.04-.53,10.88-.83,21.77-1.49,32.64-.77,12.5-1.87,24.97-2.76,37.46-.7,9.81-1.38,19.63-1.92,29.45-.52,9.46-.86,18.94-1.23,28.41-.19,4.88-.07,9.79-.48,14.65-.18,2.1.26,3.6,1.44,5.26,1.88,2.65,3.84,4.05,7.47,3.64,6.16-.7,8.71-2.93,8.72-9.08.02-8.36-.15-16.72.04-25.07.34-15.35.87-30.69,1.33-46.03.02-.56.14-1.12.18-1.69.72-10.23,1.47-20.46,2.12-30.69.6-9.35,1.09-18.7,1.62-28.05ZM551.93,411.95c-.48-7.49-1.27-14.66-1.34-21.85-.19-18.13-.03-36.26-.1-54.4,0-2.57-.48-5.15-.75-7.75,3.15,0,6.19.21,9.2-.05,3.5-.31,6.98-.91,10.41-1.64.97-.2,2.35-1.16,2.51-1.96.47-2.43.95-5.07.46-7.44-.84-4.09-4.55-4.73-7.99-4.92-4.3-.23-8.64-.14-12.95,0-1.64.05-2.23-.6-2.55-2.05-1.09-4.99-.73-9.97-.25-14.99.47-4.99.98-10.01.89-15-.11-5.93-.86-11.84-1.27-17.76-.08-1.22.12-2.46.21-4.03,5.45,1.43,10.63,2.54,15.65,4.19,3.57,1.17,6.32.17,9.08-1.83,2.69-1.95,4.32-4.16,3.48-7.84-.38-1.67-.81-2.83-2.32-3.65-9.72-5.31-20.28-7.35-31.19-7.5-4.77-.06-8.25,2.66-9.95,7.28-2.15,5.85-2.23,11.86-1.58,17.99.79,7.37,1.7,14.77,1.85,22.17.58,27.53-.91,55.09.93,82.61.52,7.77,1.05,15.53,1.54,23.3.49,7.77,1.07,15.53,1.35,23.31.17,4.94,3.39,8.46,8.42,8.47,8.36.01,16.72-.02,25.08-.05,1.13,0,2.26-.1,3.39-.21,3.3-.32,5.94-2.18,7.9-4.52.97-1.15.66-3.46.75-5.25.04-.86-.05-2.2-.57-2.52-2.18-1.35-4.45-3.08-6.85-3.4-3.74-.5-7.62-.06-11.43.18-3.8.23-7.59.69-12.01,1.11ZM497.15,493.76c-.04-.1-.07-.2-.11-.3-10.68.97-21.36,1.95-32.05,2.92-1.48.13-2.97.43-4.44.34-5.71-.36-11.44-.68-17.13-1.31-14.14-1.57-28.05-4.43-41.53-8.9-19.11-6.34-35.77-16.35-47.49-33.39-5.47-7.95-9.9-16.43-13.76-25.22-5.22-11.87-9.14-24.17-10.65-37.07-1.16-9.94-2.92-19.67-6.63-28.99-.35-.87-.67-1.75-1.19-3.11-.25.82-.36,1.07-.4,1.32-1.3,8.65-3.01,17.26-3.8,25.95-1.08,11.78-.85,23.55,2.14,35.18,3.53,13.76,8.78,26.68,17.75,37.83,9.85,12.24,22.46,20.69,36.95,26.57,22.07,8.95,44.91,14.24,68.75,15.03,12.58.42,25.01-1.09,37.36-3.17,5.46-.92,10.82-2.44,16.22-3.68ZM323.63,290.34c4.46-10.22,8.84-20.81,13.68-31.18,4.93-10.56,12.97-19.08,19.55-28.55-18.47,15.93-30.91,35.2-33.23,59.73Z"/>
  <path class="cls-3" d="M43.39,496.36c.86-4.7,1.38-9.49,2.64-14.08,2.68-9.75,7.13-18.6,14.92-25.37,7.23-6.28,15.83-9.71,25.13-11.53,8.73-1.71,17.56-2.31,26.41-1.27,28.88,3.39,48.57,25.36,52.45,48.7.87,5.26.86,10.71.72,16.06-.06,2.06-1.24,4.4-2.59,6.06-2.87,3.52-6.34,6.33-11.44,5.39-.41-.08-.86-.08-1.27,0-4.05.81-7.02-1.1-9.86-3.65-2.68-2.41-3.97-5.38-4.44-8.87-.42-3.15-.93-6.29-1.5-9.41-2.05-11.26-14.13-24.77-32.11-23.84-6.75.35-13.21,1.51-18.55,6.1-6.01,5.18-9.26,11.72-9.37,19.66-.13,9.91-.06,19.83-.06,29.75,0,61.55,0,123.1.01,184.65,0,13.08,11.36,26.4,24.32,28.58,5.5.93,11.01,1.02,16.42-.43,10.22-2.74,17.68-7.74,19.11-20.34.81-7.08,1.76-14.2,1.79-21.3.16-36.62.05-73.23.03-109.85,0-.56-.06-1.11-.1-1.92-.82,0-1.58,0-2.33,0-10.41,0-20.83-.06-31.24.03-4.43.03-7.72-1.78-10.22-5.34-4.96-7.08-3.75-16.97,3.01-22.07,1.64-1.23,3.97-2.17,5.99-2.18,20.75-.13,41.51-.05,62.27-.01.7,0,1.39.09,2.15.14.06.47.14.8.14,1.14.01,52.34.08,104.68-.02,157.02-.03,13.11-5.16,24.48-13.41,34.47-9.2,11.13-20.88,18.55-35.14,20.91-16.72,2.77-33.13,1.57-48.45-6.72-12.23-6.61-19.15-17.25-22.81-30.26-1.14-4.05-1.75-8.26-2.6-12.4,0-75.94,0-151.87,0-227.81Z"/>
  <path class="cls-3" d="M820.92,507.89c0,3.28,0,6.56,0,9.84-.01,21.18-.04,42.35-.04,63.53,0,59.14-.01,118.28.06,177.42,0,5.5-1.5,10.11-6.26,13.09-5.05,3.15-10.47,3.93-15.87.9-5.16-2.9-7.7-7.41-7.7-13.42.04-99.37.07-198.74.04-298.11,0-6.14,2.51-10.8,6.94-14.81,6.09-5.5,17.6-4.1,22.81.6,2.11,1.9,3.95,4.26,5.39,6.72,17.35,29.62,34.61,59.29,51.89,88.95,1.24,2.13,2.56,4.21,4.06,6.69.09-.8.18-1.21.18-1.63.06-29.18.12-58.36.15-87.54,0-4.25,1.07-8.04,3.82-11.38,5.75-6.99,14.71-7.92,21.78-2.17,3.42,2.78,5.2,6.17,5.2,10.8,0,99.23.08,198.46.16,297.68,0,1.06-.1,2.14.05,3.18.98,7.21-4.61,13.24-10.39,15.26-6.41,2.24-12.48.29-17.21-5.29-2.23-2.64-2.74-5.68-2.97-8.85-.28-3.95-.47-7.92-.47-11.88-.02-43.35-.03-86.69.05-130.04,0-3.38-.76-6.28-2.47-9.2-19.4-33.24-38.7-66.53-58.03-99.8-.13-.22-.33-.4-.49-.6-.22.02-.45.04-.67.06Z"/>
  <path class="cls-3" d="M223.71,637.65c0,1.42,0,2.69,0,3.95,0,37.47,0,74.94,0,112.41,0,3.96-.07,7.85-1.7,11.64-2.8,6.49-9.19,9.06-15.38,8.62-6.06-.44-11.99-5.37-13.42-11.07-.34-1.34-.25-2.81-.25-4.22,0-46.33.01-92.65.02-138.98,0-13.39.29-26.78-.12-40.16-.37-11.86,3.05-22.51,9.2-32.29,9.73-15.46,23.7-25.47,41.85-27.9,14.72-1.98,29.55-1.25,43.41,5.48,11.1,5.4,19.04,13.68,23.51,25.24,3.91,10.09,5.41,20.65,5.42,31.37.09,58.79.05,117.59.04,176.38,0,9.14-7.69,16.65-16.54,16.26-7.5-.33-14.3-7.14-14.39-14.62-.11-9.28-.07-18.56-.06-27.84.03-30.67.08-61.34.11-92.01,0-.69,0-1.39,0-2.25h-61.71ZM285.57,608.01c0-7.9.31-15.55-.1-23.17-.31-5.89-1.07-11.83-2.42-17.56-2.16-9.13-11.26-16.67-20.38-17.29-4.79-.33-9.65-.35-14.43.02-10.41.81-18.39,5.6-22.23,15.62-1.41,3.67-2.05,7.81-2.18,11.76-.31,9.54-.13,19.11-.13,28.66,0,.62.11,1.23.17,1.96h61.7Z"/>
  <path class="cls-3" d="M733.31,637.6h-61.66c0,1.17,0,2.27,0,3.38,0,39.1.01,78.2-.02,117.3,0,2.03.08,4.24-.66,6.06-2.98,7.38-6.54,9.58-14.35,10.03-5.66.33-11.34-3.22-13.55-8.74-.81-2.03-1.07-4.4-1.08-6.62-.07-19.34-.03-38.67-.03-58.01-.01-41.15.07-82.31-.1-123.46-.06-15.14,5.88-27.72,15.49-38.79,9.14-10.53,21-16.8,34.61-19.04,6.9-1.13,14.13-.65,21.19-.38,9.84.37,19.02,3.35,27.5,8.33,11.2,6.57,17.44,16.82,21.08,28.91,1.66,5.51,2.35,11.16,2.35,16.94,0,61.41.07,122.82.1,184.23,0,9.39-5.07,15.41-14.38,16.7-1.91.26-4.14-.22-5.94-.99-6.1-2.63-9.94-7.06-10.14-14.05-.11-3.89-.42-7.77-.43-11.66-.03-35.84,0-71.68,0-107.52,0-.83,0-1.66,0-2.61ZM733.04,608.01c0-12.19,1.03-24.26-.28-36.06-1.38-12.48-7.43-17.83-17.85-20.86-5.33-1.55-10.8-.96-16.22-1.23-6.7-.34-12.24,2.3-17.39,6.11-2.91,2.15-5.22,4.95-6.13,8.45-1.27,4.9-2.63,9.88-2.95,14.89-.58,9.03-.43,18.1-.57,27.15,0,.47.07.95.12,1.54h61.28Z"/>
  <path class="cls-3" d="M614.71,669.57c0,17,.34,34-.11,50.99-.35,13.38-4.52,25.7-13.32,36.09-7.36,8.69-17.15,13.23-28.04,15.48-5.24,1.09-10.64,2.02-15.96,1.99-13.88-.08-27.72-.87-40.3-7.87-10.74-5.98-17.48-15.11-21.33-26.63-2.76-8.26-4.16-16.74-4.18-25.39-.08-30.1-.2-60.2.08-90.3.11-11.26,1.84-22.47,7.18-32.61,7.28-13.82,18.91-21.98,34.25-24.83,10.57-1.97,21.22-2.38,31.92-1.28,11.9,1.22,22.99,4.54,32.36,12.35,6.43,5.37,10.43,12.35,13.17,20.15,2.79,7.92,4.39,16.06,4.38,24.48,0,15.79,0,31.59,0,47.38-.03,0-.07,0-.1,0ZM522.46,668.59c-.07,0-.15,0-.22,0,0,12.54-.1,25.07.05,37.61.06,5.15.38,10.33,1.11,15.42,1.38,9.51,6.9,15.88,15.86,19.25,9.7,3.65,19.32,3.21,29-.31,6.3-2.29,10.48-6.48,12.91-12.58,1.88-4.7,2.87-9.6,2.87-14.66.03-29.11.06-58.22,0-87.33,0-3.16-.29-6.38-.9-9.48-1.97-10-7.7-16.93-17.65-19.65-6.59-1.8-13.44-2.03-20.22-.95-6.26.99-12.08,2.96-16.15,8.34-4.09,5.41-6.52,11.51-6.62,18.23-.21,15.37-.07,30.74-.07,46.11Z"/>
  <path class="cls-3" d="M372.99,667.94c0,14.09.04,28.19-.02,42.28-.03,8.15,2.22,15.48,7.48,21.77,10.1,12.06,26.59,14.87,40.75,7.35,8.05-4.28,11.68-11.11,12.83-19.7.37-2.73.82-5.48.82-8.23.01-7.05,4.16-11.05,9.99-13.63,5.48-2.42,10.53-.84,15.03,2.72,3.79,3,5.41,7.09,5.65,11.86.47,9.52-2.25,18.3-6.21,26.77-9.22,19.68-25.06,30.69-46.13,34.33-13.16,2.28-26.13.47-38.59-4.04-16.04-5.8-25.25-17.92-29.77-33.96-1.79-6.35-2.6-12.86-2.6-19.47.02-32.16-.27-64.31.14-96.46.17-13.58,4.21-26.37,12.88-37.17,5.36-6.68,12.66-10.93,20.7-13.5,18.5-5.9,36.94-6.3,55.03,1.87,7.45,3.36,13.19,8.88,18.87,14.56,8.64,8.63,12.56,19.44,14.79,31.06.56,2.91.75,5.89,1.05,8.84.78,7.5-5.58,15.37-13.1,16.08-1.95.18-4.01.2-5.92-.18-7.14-1.42-11-5.9-11.75-13.35-.55-5.51-1.5-10.87-4.19-15.84-5.54-10.22-13.96-16.03-25.64-16.35-4.47-.12-9.07.38-13.44,1.37-9.98,2.27-14.82,9.77-17.45,18.91-.88,3.07-1.11,6.42-1.14,9.64-.12,14.16-.05,28.33-.05,42.5h0Z"/>
  <path class="cls-1" d="M671.8,273.95c-.42,3.98-.96,11.02-1.96,18-.9,6.27-5.34,8.02-10.86,4.96-2.97-1.65-4.07-3.99-3.87-7.06.33-5.22,1.05-10.41,1.27-15.63.14-3.43-.28-6.89-.5-10.33-.86-13.37-5.16-25.81-10.64-37.85-1.85-4.08-4.62-7.74-6.95-11.6-.95-1.57-1.93-3.13-2.74-4.77-1.72-3.46-1.04-6.73,2.37-8.51,2.27-1.18,5.06-1.52,7.67-1.83.77-.09,1.86,1.1,2.54,1.92,7.76,9.29,12.7,20.09,16.75,31.38,4.44,12.37,6.09,25.2,6.91,41.31Z"/>
  <path class="cls-1" d="M647.31,267.54c.36,2.59-.74,4.09-2.98,5.27-2.54,1.34-4.9,2.95-7.81,1.03-1.18-.78-2.38-1.53-3.5-2.38-.4-.3-.82-.83-.88-1.31-1.22-9.58-4.99-18.33-8.99-26.96-7.74-16.69-18.43-31.22-32.69-42.99-3.14-2.59-1.82-9.71,2.15-11.89,2.82-1.55,5.75-1.42,8.22.4,3.33,2.47,6.61,5.11,9.45,8.11,16.9,17.83,29.2,38.34,35.56,62.19.74,2.77,1,5.68,1.48,8.52Z"/>
  <g>
    <path class="cls-2" d="M407.88,292.15c-.54,9.35-1.02,18.7-1.62,28.05-.65,10.23-1.41,20.46-2.12,30.69-.04.56-.16,1.12-.18,1.69-.46,15.34-.99,30.69-1.33,46.03-.18,8.35-.02,16.72-.04,25.07-.01,6.15-2.56,8.38-8.72,9.08-3.63.41-5.59-.99-7.47-3.64-1.18-1.66-1.61-3.16-1.44-5.26.41-4.86.29-9.76.48-14.65.37-9.47.71-18.95,1.23-28.41.54-9.82,1.22-19.64,1.92-29.45.89-12.49,1.99-24.97,2.76-37.46.67-10.87.97-21.76,1.49-32.64.15-3.02.31-6.07.85-9.04.95-5.24.44-10.32-1.48-15.19-.98-2.5-.23-4.28,1.4-5.88,2.91-2.86,6.78-3.32,10.57-3.75.5-.06,1.31.9,1.68,1.55,4.89,8.62,8.78,17.69,11.83,27.09,6.15,18.97,12.35,37.93,18.14,57.01,3.64,12,6.58,24.22,9.82,36.34.36,1.34.6,2.71.9,4.06.18.04.37.08.55.11.81-2.85,1.69-5.68,2.42-8.55,6.08-23.84,12.14-47.69,18.19-71.54,3.18-12.55,7.42-24.72,12.84-36.48,1.12-2.42,1.97-4.96,2.82-7.12-3.38,0-6.66.12-9.93-.03-4.02-.18-4.54-.78-4.96-4.73-.16-1.48-.15-2.99-.5-4.42-.51-2.07.42-3.25,1.94-4.45,5.59-4.39,12.1-6.3,18.97-7.21,5.89-.78,11.79-1.52,17.7-1.99,4.77-.38,9.01,1.46,11.49,5.44,1.11,1.78.68,4.79.35,7.16-.65,4.55-3.42,6.7-8.04,6.78-1.98.03-3.97-.03-5.95.02-3.1.07-4.99,1.85-5.32,4.93-.78,7.3-.21,14.55.5,21.82.34,3.51.35,7.06.49,10.6.52,14.07.98,28.14,1.58,42.21.3,7.14.73,14.27,1.28,21.39.73,9.52,1.66,19.03,2.43,28.55,1.24,15.3,2.83,30.59,2.18,45.99-.04,1.05,0,2.11,0,3.38,2.02,0,3.91-.11,5.78.03,2.73.2,5.55.2,8.14.94,5.79,1.64,7.44,9.14,5.21,13.11-1.39,2.47-4.82,3.79-7.34,5.63-11.86.6-23.69,2.44-35.6.78-5.07-.71-10.08-1.61-14.28-4.81-.71-.54-1.33-1.62-1.39-2.49-.16-2.4.08-4.81.01-7.22-.04-1.5.61-2.28,2.01-2.43,4.28-.44,8.56-.83,12.85-1.22.74-.07,1.5,0,2.43,0,0-.94,0-1.63,0-2.32.03-8.29.04-16.57.11-24.86.01-1.55.41-3.1.38-4.64-.07-4.57-.27-9.15-.39-13.72-.15-5.66-.06-11.34-.44-16.99-.5-7.47-1.37-14.91-2.03-22.37-.17-1.9-.19-3.82-.19-5.73,0-12.54.04-25.07.07-37.61,0-.46,0-.93,0-1.39-.18-.04-.35-.07-.53-.11-.81,3.01-1.74,5.99-2.4,9.02-6.38,29-14.16,57.62-23.07,85.93-1.78,5.66-4.45,11.12-7.32,16.34-2.51,4.57-4.92,4.99-9.48,2.46-3.83-2.12-6.43-4.91-6.71-9.93-.63-11.58-3.02-22.92-5.51-34.25-5.44-24.74-11.87-49.21-18.97-73.51-.19-.64-.46-1.25-.7-1.87l-.34.07Z"/>
    <path class="cls-2" d="M551.93,411.95c4.42-.42,8.21-.88,12.01-1.11,3.81-.23,7.69-.67,11.43-.18,2.41.32,4.68,2.05,6.85,3.4.52.33.62,1.66.57,2.52-.09,1.79.22,4.09-.75,5.25-1.97,2.34-4.6,4.2-7.9,4.52-1.13.11-2.26.21-3.39.21-8.36.03-16.72.06-25.08.05-5.03,0-8.24-3.53-8.42-8.47-.28-7.78-.86-15.54-1.35-23.31-.49-7.77-1.02-15.54-1.54-23.3-1.84-27.52-.35-55.08-.93-82.61-.16-7.4-1.06-14.8-1.85-22.17-.66-6.13-.57-12.14,1.58-17.99,1.7-4.62,5.18-7.34,9.95-7.28,10.91.15,21.46,2.18,31.19,7.5,1.51.83,1.93,1.98,2.32,3.65.84,3.68-.78,5.89-3.48,7.84-2.76,2-5.51,3-9.08,1.83-5.01-1.65-10.2-2.76-15.65-4.19-.09,1.58-.29,2.82-.21,4.03.41,5.92,1.16,11.83,1.27,17.76.09,4.99-.42,10.01-.89,15-.47,5.02-.83,10,.25,14.99.32,1.45.91,2.1,2.55,2.05,4.31-.13,8.64-.23,12.95,0,3.44.19,7.14.83,7.99,4.92.49,2.36,0,5-.46,7.44-.16.81-1.54,1.76-2.51,1.96-3.44.72-6.92,1.33-10.41,1.64-3.01.26-6.05.05-9.2.05.26,2.6.74,5.17.75,7.75.07,18.13-.09,36.27.1,54.4.08,7.18.86,14.36,1.34,21.85Z"/>
    <path class="cls-2" d="M497.15,493.76c-5.4,1.25-10.76,2.76-16.22,3.68-12.36,2.08-24.79,3.59-37.36,3.17-23.84-.79-46.69-6.08-68.75-15.03-14.49-5.88-27.1-14.33-36.95-26.57-8.97-11.15-14.22-24.06-17.75-37.83-2.99-11.63-3.21-23.4-2.14-35.18.8-8.69,2.5-17.3,3.8-25.95.04-.25.15-.5.4-1.32.52,1.36.84,2.24,1.19,3.11,3.71,9.32,5.47,19.05,6.63,28.99,1.51,12.9,5.43,25.2,10.65,37.07,3.87,8.79,8.29,17.27,13.76,25.22,11.72,17.04,28.38,27.04,47.49,33.39,13.49,4.48,27.4,7.33,41.53,8.9,5.69.63,11.41.95,17.13,1.31,1.47.09,2.96-.2,4.44-.34,10.68-.97,21.36-1.95,32.05-2.92.04.1.07.2.11.3Z"/>
    <path class="cls-2" d="M323.63,290.34c2.32-24.53,14.76-43.8,33.23-59.73-6.58,9.47-14.62,17.99-19.55,28.55-4.84,10.37-9.22,20.96-13.68,31.18Z"/>
  </g>
</svg>